HIERARCHY
ROOT Hips
{
	OFFSET 0.000000 0.000000 0.000000
	CHANNELS 6 Xposition Yposition Zposition Xrotation Yrotation Zrotation
	JOINT Spine
	{
		OFFSET 0.000000 0.041051 0.061576
		CHANNELS 3 Xrotation Yrotation Zrotation
		JOINT Spine1
		{
			OFFSET 0.000000 0.014257 0.080854
			CHANNELS 3 Xrotation Yrotation Zrotation
			JOINT Spine2
			{
				OFFSET 0.000000 0.007156 0.081789
				CHANNELS 3 Xrotation Yrotation Zrotation
				JOINT Spine3
				{
					OFFSET 0.000000 0.000000 0.082102
					CHANNELS 3 Xrotation Yrotation Zrotation
					JOINT Neck
					{
						OFFSET 0.000000 -0.030788 0.215517
						CHANNELS 3 Xrotation Yrotation Zrotation
						JOINT Head
						{
							OFFSET 0.000000 -0.019603 0.111175
							CHANNELS 3 Xrotation Yrotation Zrotation
							End Site
							{
								OFFSET 0.000000 0.000000 0.000000
							}
						}
					}
					JOINT RightShoulder
					{
						OFFSET -0.026795 -0.044658 0.144692
						CHANNELS 3 Xrotation Yrotation Zrotation
						JOINT RightArm
						{
							OFFSET -0.133081 0.000000 0.000000
							CHANNELS 3 Xrotation Yrotation Zrotation
							JOINT RightForeArm
							{
								OFFSET -0.269168 0.000000 0.000000
								CHANNELS 3 Xrotation Yrotation Zrotation
								JOINT RightHand
								{
									OFFSET -0.218749 0.000000 0.000000
									CHANNELS 3 Xrotation Yrotation Zrotation
									JOINT RightHandEnd
									{
										OFFSET -0.063788 0.000000 0.000000
										CHANNELS 3 Xrotation Yrotation Zrotation
										End Site
										{
											OFFSET 0.000000 0.000000 0.000000
										}
									}
									JOINT RightHandThumb1
									{
										OFFSET -0.025515 -0.042525 -0.017010
										CHANNELS 3 Xrotation Yrotation Zrotation
										End Site
										{
											OFFSET 0.000000 0.000000 0.000000
										}
									}
								}
							}
						}
					}
					JOINT LeftShoulder
					{
						OFFSET 0.026795 -0.044658 0.144692
						CHANNELS 3 Xrotation Yrotation Zrotation
						JOINT LeftArm
						{
							OFFSET 0.133081 0.000000 0.000000
							CHANNELS 3 Xrotation Yrotation Zrotation
							JOINT LeftForeArm
							{
								OFFSET 0.269168 0.000000 0.000000
								CHANNELS 3 Xrotation Yrotation Zrotation
								JOINT LeftHand
								{
									OFFSET 0.218749 0.000000 0.000000
									CHANNELS 3 Xrotation Yrotation Zrotation
									JOINT LeftHandEnd
									{
										OFFSET 0.063788 0.000000 0.000000
										CHANNELS 3 Xrotation Yrotation Zrotation
										End Site
										{
											OFFSET 0.000000 0.000000 0.000000
										}
									}
									JOINT LeftHandThumb1
									{
										OFFSET 0.025515 -0.042525 -0.017010
										CHANNELS 3 Xrotation Yrotation Zrotation
										End Site
										{
											OFFSET 0.000000 0.000000 0.000000
										}
									}
								}
							}
						}
					}
				}
			}
		}
	}
	JOINT RightUpLeg
	{
		OFFSET -0.079492 0.000000 -0.023222
		CHANNELS 3 Xrotation Yrotation Zrotation
		JOINT RightLeg
		{
			OFFSET 0.000000 0.000000 -0.393933
			CHANNELS 3 Xrotation Yrotation Zrotation
			JOINT RightFoot
			{
				OFFSET 0.000000 0.000000 -0.344864
				CHANNELS 3 Xrotation Yrotation Zrotation
				JOINT RightToeBase
				{
					OFFSET 0.000000 -0.129455 -0.047118
					CHANNELS 3 Xrotation Yrotation Zrotation
					End Site
					{
						OFFSET 0.000000 0.000000 0.000000
					}
				}
			}
		}
	}
	JOINT LeftUpLeg
	{
		OFFSET 0.079492 0.000000 -0.023222
		CHANNELS 3 Xrotation Yrotation Zrotation
		JOINT LeftLeg
		{
			OFFSET 0.000000 0.000000 -0.393933
			CHANNELS 3 Xrotation Yrotation Zrotation
			JOINT LeftFoot
			{
				OFFSET 0.000000 0.000000 -0.344864
				CHANNELS 3 Xrotation Yrotation Zrotation
				JOINT LeftToeBase
				{
					OFFSET 0.000000 -0.129455 -0.047118
					CHANNELS 3 Xrotation Yrotation Zrotation
					End Site
					{
						OFFSET 0.000000 0.000000 0.000000
					}
				}
			}
		}
	}
}
MOTION
Frames: 4
Frame Time: 0.033333
0.223771 -1.010595 0.826813 -1.348200 5.772600 -132.950600 -0.201700 0.302300 0.751200 -0.225100 -1.505100 0.149100 1.897300 1.038300 5.295900 0.639900 0.366800 1.236300 -0.583300 0.516600 -15.153900 5.915900 -5.623900 -22.057900 5.324200 -5.104600 9.112400 2.362500 7.106100 17.593900 0.000000 0.000100 50.740500 12.903600 -15.506500 -35.619400 0.000000 0.000000 0.000000 0.000000 0.000000 0.000000 7.409300 5.677500 -4.833400 6.091300 48.285100 -4.517700 -0.000100 0.000000 -120.779400 35.450700 -41.046100 -13.585100 0.000000 0.000000 0.000000 0.000000 0.000000 0.000000 4.292300 16.971200 -33.140800 33.831700 0.000000 0.000000 -2.846100 4.886700 -28.931300 -18.276300 0.000000 0.000000 -2.465900 1.947700 8.576200 18.858000 0.000000 0.000000 -6.861300 3.415500 0.370200 -0.291300 0.000000 0.000000 
0.209647 -1.016493 0.827088 -1.819600 5.555300 -130.212200 -0.246400 0.447800 0.705000 -0.240300 -1.506700 0.118500 1.740300 0.834400 4.807100 0.547800 0.424700 1.083600 -0.712500 0.082400 -16.535800 5.524200 -5.742200 -23.645900 6.094600 -4.254200 7.384500 11.881300 8.675800 14.458400 0.000000 0.000100 53.983600 6.481000 -14.931100 -40.328600 0.000000 0.000000 0.000000 0.000000 0.000000 0.000000 7.259200 5.504500 -4.211900 1.465000 46.046200 0.364500 -0.000100 0.000000 -121.117000 33.787800 -41.296700 -13.333500 0.000000 0.000000 0.000000 0.000000 0.000000 0.000000 2.398300 17.618700 -26.592700 39.159400 0.000000 0.000000 -3.099000 6.037500 -21.287100 -24.949400 0.000000 0.000000 -2.355600 3.117800 7.402300 18.393100 0.000000 0.000000 -7.056000 2.472600 -1.060100 -0.387800 0.000000 0.000000 
0.198801 -1.020821 0.828551 -1.685800 5.088100 -127.696700 -0.145400 0.241900 0.558700 -0.199000 -1.411000 0.075000 1.715100 0.483000 3.932700 0.455800 0.467700 0.889100 -0.975400 -0.474200 -17.685600 5.291300 -5.738200 -24.662800 7.291600 -3.995500 5.531400 20.829600 9.228500 12.523400 0.000000 0.000100 58.280200 4.069900 -21.665700 -45.496700 0.000000 0.000000 0.000000 0.000000 0.000000 0.000000 7.304600 5.151000 -3.685400 -2.890000 43.679300 4.950300 -0.000100 0.000000 -121.447300 32.229800 -41.579000 -13.284700 0.000000 0.000000 0.000000 0.000000 0.000000 0.000000 0.348000 16.647200 -20.963000 43.560600 0.000000 0.000000 -5.626300 2.959100 -14.396300 -26.407400 0.000000 0.000000 -2.163400 3.418200 6.321300 18.060000 0.000000 0.000000 -6.820800 2.106500 -2.260800 -0.361000 0.000000 0.000000 
0.190800 -1.023656 0.831035 -1.122700 4.586200 -125.111200 0.065800 -0.134600 0.361000 -0.102300 -1.236500 0.021300 1.801300 -0.004200 2.742300 0.369700 0.499700 0.669100 -1.165400 -1.020600 -18.785200 5.133900 -5.702200 -25.334300 8.415200 -4.230300 3.735000 27.275300 8.123300 12.070300 0.000000 0.000100 64.562900 -0.915100 -42.459100 -46.447600 0.000000 0.000000 0.000000 0.000000 0.000000 0.000000 7.473900 4.510700 -3.507500 -6.607100 41.345900 8.879100 -0.000100 0.000000 -121.685400 31.127200 -42.073100 -12.920400 0.000000 0.000000 0.000000 0.000000 0.000000 0.000000 -1.618800 14.450900 -17.127100 46.339100 0.000000 0.000000 -7.645900 -1.340400 -12.414400 -25.630800 0.000000 0.000000 -2.027100 3.112600 5.172300 18.057200 0.000000 0.000000 -6.298100 1.740400 -3.481500 -0.562900 0.000000 0.000000 
